<svg width="60" height="61" viewBox="0 0 60 61" fill="none" xmlns="http://www.w3.org/2000/svg">
<g filter="url(#filter0_d_3258_2444)">
<path d="M34.0937 19.4269L23.0982 30.4224L25.9266 33.2508L36.9221 22.2553L34.0937 19.4269Z" fill="#E2F163"/>
<path d="M23.6202 49.4804C23.719 49.3863 23.7972 49.273 23.8505 49.1474C23.9038 49.0219 23.9309 48.8868 23.9301 48.7504C23.9309 48.614 23.9038 48.4789 23.8505 48.3533C23.7972 48.2278 23.719 48.1145 23.6202 48.0204L8.20008 32.5904C8.10511 32.4935 7.99159 32.4169 7.86609 32.3653C7.74059 32.3138 7.60576 32.2882 7.47009 32.2904C7.33443 32.2882 7.19984 32.3138 7.07434 32.3653C6.94884 32.4169 6.83508 32.4935 6.74011 32.5904L4.30017 35.0304C4.20326 35.1254 4.12665 35.239 4.07507 35.3645C4.0235 35.49 3.99799 35.6247 4.00012 35.7604C3.99799 35.896 4.0235 36.0307 4.07507 36.1562C4.12665 36.2817 4.20326 36.3954 4.30017 36.4904L19.7301 51.9204C19.8251 52.0173 19.9388 52.0939 20.0643 52.1454C20.1898 52.197 20.3244 52.2225 20.4601 52.2204C20.733 52.2181 20.9944 52.1106 21.1901 51.9204L23.6202 49.4804Z" fill="#E2F163"/>
<path d="M33.4201 45.4804C33.4182 45.1653 33.2926 44.8636 33.0702 44.6404L11.5802 23.1504C11.4692 23.0381 11.3366 22.9493 11.1906 22.8892C11.0446 22.8291 10.888 22.7989 10.7301 22.8004C10.5737 22.7991 10.4187 22.8294 10.2743 22.8896C10.13 22.9497 9.99923 23.0384 9.89003 23.1504L7.29018 25.7604C7.17729 25.8688 7.08795 25.9994 7.02773 26.1439C6.96751 26.2885 6.93761 26.4438 6.94008 26.6004C6.93879 26.7567 6.96929 26.9118 7.02944 27.0561C7.08959 27.2005 7.17823 27.3312 7.29018 27.4404L28.7802 48.9304C28.8894 49.0423 29.0201 49.131 29.1644 49.1912C29.3088 49.2513 29.4639 49.2817 29.6203 49.2804C29.7768 49.2828 29.932 49.253 30.0766 49.1928C30.2211 49.1326 30.3516 49.0433 30.4601 48.9304L33.0702 46.3204C33.1812 46.2105 33.2694 46.0797 33.3295 45.9355C33.3896 45.7913 33.4202 45.6366 33.4201 45.4804Z" fill="#E2F163"/>
<path d="M51.4 20.2404C51.495 20.3373 51.6088 20.4139 51.7343 20.4654C51.8598 20.517 51.9943 20.5425 52.13 20.5404C52.2657 20.5425 52.4005 20.517 52.526 20.4654C52.6515 20.4139 52.7653 20.3373 52.8602 20.2404L55.3002 17.8004C55.3971 17.7054 55.4737 17.5917 55.5253 17.4662C55.5768 17.3407 55.6024 17.206 55.6002 17.0704C55.6024 16.9347 55.5768 16.8 55.5253 16.6745C55.4737 16.549 55.3971 16.4353 55.3002 16.3404L39.88 0.920368C39.7859 0.821645 39.6728 0.743211 39.5472 0.689899C39.4217 0.636588 39.2864 0.609529 39.15 0.610371C39.0136 0.609529 38.8786 0.636588 38.7531 0.689899C38.6275 0.743211 38.5142 0.821645 38.42 0.920368L35.9801 3.35036C35.8832 3.44532 35.8066 3.55903 35.755 3.68453C35.7034 3.81003 35.6779 3.94471 35.6801 4.08037C35.6779 4.21604 35.7034 4.35072 35.755 4.47622C35.8066 4.60171 35.8832 4.71542 35.9801 4.81038L51.4 20.2404Z" fill="#E2F163"/>
<path d="M52.3204 27.0804C52.5392 26.8556 52.6611 26.5541 52.6603 26.2404C52.6626 25.9235 52.5407 25.6183 52.3204 25.3904L30.8204 3.86038C30.7105 3.74935 30.5796 3.66125 30.4354 3.60117C30.2912 3.54109 30.1365 3.51021 29.9803 3.51038C29.6652 3.51223 29.3634 3.63796 29.1402 3.86038L26.8104 6.19037C26.7007 6.30074 26.6141 6.43191 26.5558 6.57614C26.4974 6.72038 26.4683 6.87481 26.4703 7.0304C26.4684 7.34428 26.5907 7.64619 26.8104 7.87039L48.3104 29.3604C48.4189 29.4733 48.5494 29.5626 48.6939 29.6228C48.8385 29.6831 48.9937 29.7129 49.1502 29.7104C49.3066 29.7117 49.4617 29.6813 49.6061 29.6212C49.7504 29.561 49.8811 29.4723 49.9903 29.3604L52.3204 27.0804Z" fill="#E2F163"/>
</g>
<defs>
<filter id="filter0_d_3258_2444" x="0" y="0.610352" width="59.6003" height="59.6104" filterUnits="userSpaceOnUse" color-interpolation-filters="sRGB">
<feFlood flood-opacity="0" result="BackgroundImageFix"/>
<feColorMatrix in="SourceAlpha" type="matrix" values="0 0 0 0 0 0 0 0 0 0 0 0 0 0 0 0 0 0 127 0" result="hardAlpha"/>
<feOffset dy="4"/>
<feGaussianBlur stdDeviation="2"/>
<feComposite in2="hardAlpha" operator="out"/>
<feColorMatrix type="matrix" values="0 0 0 0 0 0 0 0 0 0 0 0 0 0 0 0 0 0 0.25 0"/>
<feBlend mode="normal" in2="BackgroundImageFix" result="effect1_dropShadow_3258_2444"/>
<feBlend mode="normal" in="SourceGraphic" in2="effect1_dropShadow_3258_2444" result="shape"/>
</filter>
</defs>
</svg>
