<svg width="136" height="63" viewBox="0 0 136 63" fill="none" xmlns="http://www.w3.org/2000/svg">
<path d="M63.1569 20.6012H34.9359L33.1492 27.9396H61.3702L57.2311 45.2487H29.0086L24.8695 62.7448H0.693359L15.7443 0H68.1414L63.1569 20.6012Z" fill="#896CFE"/>
<path d="M115.469 0C125.911 0 129.016 0.564141 132.119 2.72797C134.472 4.42039 135.694 7.33692 135.694 11.1004C135.694 17.1205 132.591 23.8948 128.263 27.0927C126.005 28.7851 123.09 29.9149 118.385 30.9489L118.291 31.3245C122.713 31.9829 123.652 32.2658 125.158 33.1127C127.886 34.8052 129.297 37.3446 129.297 41.0154C129.297 48.918 124.499 57.1019 117.914 60.394C114.527 61.9937 109.918 62.7464 102.204 62.7464H61.2832L76.3342 0.00154533H115.469V0Z" fill="#896CFE"/>
</svg>
